<svg width="390" height="390" viewBox="0 0 390 390" fill="none" xmlns="http://www.w3.org/2000/svg">
<path d="M270 0H120C53.7258 0 0 53.7258 0 120V270C0 336.274 53.7258 390 120 390H270C336.274 390 390 336.274 390 270V120C390 53.7258 336.274 0 270 0Z" fill="black"/>
<path d="M210.83 134.655C205.4 133.165 199.76 132.415 194.07 132.415C159.2 132.415 130.82 160.785 130.82 195.665C130.82 230.545 159.19 258.915 194.07 258.915C228.95 258.915 257.32 230.545 257.32 195.665C257.32 189.975 256.57 184.335 255.08 178.905C254.06 175.175 256.25 171.325 259.98 170.295C263.71 169.275 267.56 171.465 268.59 175.195C270.41 181.865 271.33 188.745 271.33 195.655C271.33 238.255 236.67 272.905 194.08 272.905C151.49 272.905 116.83 238.245 116.83 195.655C116.83 153.065 151.49 118.405 194.08 118.405C201.02 118.405 207.9 119.325 214.54 121.145C217.65 121.995 219.69 124.815 219.69 127.895C219.69 128.525 219.61 129.145 219.44 129.745C218.42 133.475 214.57 135.675 210.83 134.645V134.655ZM292.83 159.085C289.12 160.185 287 164.075 288.1 167.785C290.77 176.795 292.12 186.175 292.12 195.655C292.12 249.715 248.14 293.705 194.07 293.705C140 293.705 96.02 249.725 96.02 195.655C96.02 141.585 140 97.605 194.07 97.605C203.56 97.605 212.93 98.955 221.94 101.625C225.65 102.725 229.55 100.605 230.64 96.895C230.84 96.235 230.93 95.565 230.93 94.905C230.93 91.885 228.96 89.095 225.91 88.195C215.61 85.145 204.9 83.605 194.06 83.605C164.13 83.605 135.99 95.265 114.82 116.425C93.66 137.585 82 165.725 82 195.665C82 225.605 93.66 253.735 114.82 274.905C135.98 296.065 164.12 307.725 194.06 307.725C224 307.725 252.13 296.065 273.3 274.905C294.46 253.745 306.12 225.605 306.12 195.665C306.12 184.835 304.57 174.115 301.52 163.815C300.42 160.105 296.52 157.995 292.82 159.085H292.83ZM194.07 167.645C195.1 167.645 196.14 167.705 197.16 167.815C201.01 168.235 204.46 165.465 204.89 161.615C205.31 157.775 202.54 154.315 198.69 153.885C197.16 153.715 195.61 153.635 194.07 153.635C170.9 153.635 152.05 172.485 152.05 195.655C152.05 218.825 170.9 237.675 194.07 237.675C217.24 237.675 236.09 218.825 236.09 195.655C236.09 191.785 232.95 188.655 229.09 188.655C225.23 188.655 222.09 191.795 222.09 195.655C222.09 211.105 209.52 223.665 194.08 223.665C178.64 223.665 166.07 211.095 166.07 195.655C166.07 180.215 178.64 167.645 194.08 167.645H194.07Z" fill="#ED2024"/>
<path d="M300.68 116.765L275.36 114.775L273.37 89.455C273.24 87.795 272.52 86.235 271.34 85.055C268.6 82.315 264.17 82.315 261.43 85.055L236.34 110.145C235.2 111.285 234.49 112.795 234.33 114.405L230.84 149.395L190.13 190.105C187.39 192.835 187.39 197.275 190.13 200.005C191.44 201.325 193.22 202.065 195.08 202.065C196.94 202.065 198.72 201.325 200.03 200.005L240.74 159.295L275.74 155.805C277.34 155.645 278.85 154.935 279.99 153.795L305.08 128.705C306.26 127.525 306.98 125.965 307.11 124.295C307.42 120.445 304.54 117.075 300.68 116.765ZM271.86 142.115L245.38 144.765L248.02 118.285L260.6 105.705L261.86 121.845C262.13 125.275 264.86 128.005 268.3 128.275L284.43 129.545L271.86 142.115Z" fill="white"/>
</svg>
