<svg width="2832" height="220" viewBox="0 0 2832 220" fill="none" xmlns="http://www.w3.org/2000/svg">
<path d="M165.302 3.10876C168.745 3.10876 171.966 3.40496 174.928 4.03439C177.89 4.66381 180.26 6.36704 182.111 9.21795C183.962 12.0689 184.851 16.7707 184.851 23.2501C184.851 29.7294 183.925 34.1357 182.111 36.9866C180.26 39.8375 177.816 41.5777 174.78 42.1701C171.707 42.7996 168.449 43.0958 165.006 43.0958H115.837V194.305C115.837 198.156 115.467 201.858 114.763 205.301C114.06 208.782 112.134 211.559 108.95 213.706C105.803 215.853 100.36 216.927 92.6223 216.927C85.4765 216.927 80.2927 215.853 77.0345 213.706C73.7763 211.559 71.777 208.707 71.0736 205.153C70.3701 201.599 70.0002 197.86 70.0002 194.009V43.0958H20.498C17.2398 43.0958 14.0925 42.7624 11.0194 42.0219C7.98336 41.3184 5.46559 39.5782 3.5403 36.8383C1.61501 34.0985 0.65271 29.4704 0.65271 22.954C0.65271 16.4377 1.61501 12.0689 3.5403 9.21795C5.46559 6.36704 7.98336 4.62678 11.0194 4.03439C14.0925 3.40496 17.2398 3.10876 20.498 3.10876H165.302Z" fill="black"/>
<path d="M402.039 184.567C404.482 189.677 405.816 193.972 406.001 197.563C406.186 201.118 405.149 204.264 402.78 207.041C400.447 209.781 396.633 212.484 391.339 215.15C383.193 219.223 376.862 220.445 372.382 218.815C367.902 217.186 363.718 212.299 359.867 204.154L299.999 78.8985L240.425 204.154C236.353 212.114 232.132 216.816 227.763 218.371C223.394 219.889 217.1 218.704 208.991 214.854C203.697 212.41 199.846 209.818 197.402 207.078C194.959 204.339 193.885 201.08 194.181 197.304C194.478 193.527 195.959 189.121 198.625 184.012L278.968 16.9189C281.005 12.8462 284.004 9.58794 287.966 7.1443C291.927 4.70067 296.074 3.47888 300.332 3.47888C303.368 3.47888 306.219 4.03453 308.885 5.14527C311.513 6.25602 313.92 7.84774 316.067 9.88411C318.215 11.9205 319.992 14.3645 321.399 17.2154L402.039 184.605V184.567ZM248.682 167.166L267.639 127.772H332.691L351.648 167.166H248.719H248.682Z" fill="black"/>
<path d="M446.321 216.964C438.768 216.964 433.436 215.853 430.289 213.595C427.141 211.373 425.142 208.411 424.328 204.746C423.513 201.08 423.106 197.304 423.106 193.454V26.6565C423.106 22.806 423.513 19.0664 424.328 15.512C425.142 11.9576 427.179 9.03277 430.437 6.81128C433.695 4.58979 439.101 3.44189 446.617 3.44189H509.855C518.408 3.44189 527.071 4.95988 535.809 8.03294C544.547 11.106 552.619 15.7713 559.95 22.0655C567.281 28.3967 573.205 36.2089 577.685 45.5762C582.165 54.9435 584.423 66.0509 584.423 78.8615C584.423 87.4142 583.164 95.7081 580.609 103.742C578.055 111.777 574.241 119.108 569.169 125.735C564.059 132.362 557.765 138.064 550.212 142.84C542.659 147.617 534.032 151.134 524.258 153.392H469.868V193.713C469.868 197.563 469.461 201.303 468.646 204.857C467.832 208.411 465.796 211.336 462.537 213.558C459.279 215.779 453.873 216.927 446.357 216.927L446.321 216.964ZM469.831 107.297H512.299C514.927 107.297 517.816 106.741 520.852 105.63C523.925 104.52 526.701 102.817 529.256 100.595C531.811 98.3735 533.884 95.4115 535.513 91.746C537.142 88.0806 537.957 83.7119 537.957 78.6025C537.957 72.7155 536.735 67.6061 534.291 63.3483C531.848 59.0534 528.478 55.758 524.221 53.4254C519.926 51.0929 514.965 49.9082 509.263 49.9082H469.868V107.334L469.831 107.297ZM575.204 210.855C567.651 216.372 561.653 218.556 557.173 217.409C552.693 216.298 547.99 212.262 543.103 205.338L489.343 128.364L541.585 121.625L580.98 178.125C584.46 183.013 586.644 187.196 587.533 190.64C588.459 194.12 587.941 197.378 586.015 200.414C584.09 203.487 580.461 206.93 575.167 210.818L575.204 210.855Z" fill="black"/>
<path d="M713.936 219.408C699.052 219.408 685.167 216.557 672.246 210.855C659.324 205.153 647.995 197.23 638.331 187.011C628.668 176.829 621.189 164.907 615.894 151.282C610.6 137.657 607.971 122.884 607.971 107.001C607.971 91.117 610.71 77.9358 616.227 65.0141C621.707 52.0925 629.371 40.8002 639.146 31.0997C648.92 21.4362 660.435 13.8828 673.653 8.47713C686.871 3.07151 701.125 0.295025 716.417 0.072876C722.933 0.072876 729.819 0.702298 737.039 1.92412C744.259 3.14594 751.331 4.99714 758.255 7.44078C765.178 9.88442 771.176 12.8465 776.286 16.2898C780.359 19.1407 783.987 21.9914 787.134 24.8423C790.281 27.6932 791.873 31.1737 791.873 35.2465C792.058 37.505 791.651 39.8372 790.652 42.2808C789.615 44.7245 788.208 47.3903 786.357 50.2413C783.098 54.7213 779.877 58.0167 776.73 60.1641C773.583 62.3115 770.473 63.3853 767.4 63.3853C765.549 63.3853 763.586 62.8296 761.439 61.7189C759.291 60.6081 756.292 58.905 752.442 56.6835C750.59 55.2766 747.74 53.833 743.889 52.389C740.039 50.982 735.595 49.6861 730.597 48.5753C725.599 47.4646 720.452 46.9089 715.158 46.9089C703.532 46.9089 693.165 49.501 683.983 54.6845C674.838 59.868 667.655 67.0506 662.435 76.2328C657.251 85.3779 654.548 96.0039 654.326 108C654.511 120.218 657.288 131.177 662.582 140.841C667.877 150.504 675.171 158.206 684.427 163.908C693.683 169.61 703.939 172.46 715.121 172.46C719.416 172.46 723.636 172.275 727.783 171.831C731.967 171.423 736.04 170.757 740.001 169.832C743.963 168.906 747.592 167.758 750.85 166.314V129.03H718.157C714.676 129.03 711.603 128.734 708.826 128.105C706.086 127.475 703.828 125.809 702.088 123.069C700.348 120.329 699.496 115.701 699.496 109.185C699.496 102.669 700.422 97.7444 702.236 94.9675C704.087 92.2277 706.457 90.5242 709.419 89.9318C712.381 89.3023 715.491 89.0061 718.749 89.0061H776.471C783.209 89.2283 787.986 90.4501 790.836 92.6716C793.687 94.9301 795.502 97.707 796.353 101.076C797.168 104.446 797.575 108.037 797.575 111.925V178.532C797.575 183.42 795.316 188.455 790.836 193.638C786.356 198.822 780.248 203.487 772.509 207.523C767.622 209.966 762.068 212.04 755.848 213.78C749.628 215.52 743.001 216.89 736.003 217.89C728.968 218.889 721.6 219.408 713.862 219.408H713.936Z" fill="black"/>
<path d="M852.002 216.964C844.671 216.964 839.376 215.891 836.118 213.743C832.86 211.596 830.86 208.708 830.157 205.042C829.453 201.377 829.083 197.6 829.083 193.75V26.6565C829.083 17.9187 830.823 11.8465 834.267 8.47722C837.71 5.10796 843.93 3.44189 852.89 3.44189H968.371C972.444 3.44189 976.22 3.81229 979.663 4.51576C983.107 5.21923 985.958 7.21852 988.216 10.4767C990.438 13.7349 991.585 19.2514 991.585 26.9896C991.585 34.3206 990.475 39.6152 988.216 42.8734C985.958 46.1316 983.069 48.1309 979.515 48.8344C975.961 49.5378 972.147 49.9082 968.074 49.9082H875.512V89.3027H938.455C942.527 89.3027 946.156 89.5989 949.303 90.2283C952.45 90.8578 954.968 92.561 956.782 95.4119C958.633 98.2628 959.522 103.039 959.522 109.778C959.522 116.109 958.596 120.663 956.782 123.514C954.931 126.365 952.339 128.105 949.007 128.697C945.637 129.327 941.935 129.623 937.862 129.623H875.549V170.572H968.408C972.48 170.572 976.257 170.98 979.7 171.794C983.144 172.609 985.995 174.608 988.253 177.755C990.475 180.902 991.622 186.345 991.622 194.083C991.622 201.414 990.512 206.708 988.253 209.967C985.995 213.225 983.106 215.224 979.552 215.927C975.998 216.631 972.184 217.001 968.111 217.001H852.039L852.002 216.964Z" fill="black"/>
<path d="M1171.19 3.10876C1174.64 3.10876 1177.86 3.40496 1180.82 4.03439C1183.78 4.66381 1186.15 6.36704 1188 9.21795C1189.85 12.0689 1190.74 16.7707 1190.74 23.2501C1190.74 29.7294 1189.82 34.1357 1188 36.9866C1186.15 39.8375 1183.71 41.5777 1180.67 42.1701C1177.64 42.7625 1174.34 43.0958 1170.9 43.0958H1121.73V194.305C1121.73 198.156 1121.36 201.858 1120.65 205.301C1119.95 208.782 1117.99 211.559 1114.84 213.706C1111.69 215.853 1106.25 216.927 1098.51 216.927C1091.37 216.927 1086.18 215.853 1082.93 213.706C1079.67 211.559 1077.67 208.707 1076.96 205.153C1076.26 201.599 1075.89 197.86 1075.89 194.009V43.0958H1026.39C1023.13 43.0958 1019.98 42.7624 1016.91 42.0219C1013.84 41.3184 1011.36 39.5782 1009.43 36.8383C1007.51 34.0985 1006.54 29.4704 1006.54 22.954C1006.54 16.4377 1007.51 12.0689 1009.43 9.21795C1011.36 6.36704 1013.87 4.62678 1016.91 4.03439C1019.95 3.44199 1023.13 3.10876 1026.39 3.10876H1171.19Z" fill="black"/>
<path d="M1481.57 184.567C1484.02 189.677 1485.35 193.972 1485.53 197.563C1485.72 201.118 1484.68 204.264 1482.31 207.041C1479.98 209.781 1476.17 212.484 1470.87 215.15C1462.73 219.223 1456.4 220.445 1451.92 218.815C1447.44 217.186 1443.25 212.299 1439.4 204.154L1379.53 78.8985L1319.96 204.154C1315.89 212.114 1311.66 216.816 1307.3 218.371C1302.93 219.889 1296.63 218.704 1288.52 214.854C1283.23 212.41 1279.38 209.818 1276.94 207.078C1274.49 204.339 1273.42 201.08 1273.71 197.304C1274.01 193.527 1275.49 189.121 1278.16 184.012L1358.5 16.9189C1360.54 12.8462 1363.54 9.58794 1367.5 7.1443C1371.46 4.70067 1375.61 3.47888 1379.86 3.47888C1382.94 3.47888 1385.75 4.03453 1388.42 5.14527C1391.05 6.25602 1393.45 7.84774 1395.6 9.88411C1397.75 11.9205 1399.52 14.3645 1400.93 17.2154L1481.57 184.605V184.567ZM1328.22 167.166L1347.17 127.772H1412.22L1431.18 167.166H1328.25H1328.22Z" fill="black"/>
<path d="M1523.41 216.964C1516.26 216.964 1511.08 215.853 1507.82 213.595C1504.56 211.373 1502.49 208.448 1501.57 204.894C1500.64 201.34 1500.2 197.526 1500.2 193.453V26.3603C1500.2 22.5097 1500.6 18.7702 1501.42 15.2158C1502.23 11.6614 1504.27 8.73654 1507.53 6.51505C1510.78 4.29356 1516.19 3.25658 1523.71 3.4417H1578.69C1593.35 3.4417 1606.97 6.10758 1619.64 11.4021C1632.26 16.6967 1643.37 24.1387 1652.92 33.6912C1662.48 43.2806 1669.92 54.4619 1675.21 67.3095C1680.51 80.1201 1683.17 94.0787 1683.17 109.148C1683.17 124.217 1680.47 138.62 1675.06 151.763C1669.66 164.907 1662.25 176.311 1652.77 185.974C1643.3 195.638 1632.19 203.228 1619.49 208.745C1606.75 214.224 1592.87 217.001 1577.8 217.001H1523.41V216.964ZM1546.62 170.239H1578.69C1589.68 170.239 1599.57 167.647 1608.31 162.464C1617.05 157.28 1623.93 150.208 1628.93 141.248C1633.93 132.288 1636.41 121.995 1636.41 110.407C1636.41 98.8177 1633.93 88.414 1628.93 79.2319C1623.93 70.0497 1617.05 62.9037 1608.31 57.6832C1599.53 52.4997 1589.57 49.9081 1578.39 49.9081H1546.62V170.276V170.239Z" fill="black"/>
<path d="M1727.49 216.964C1720.16 216.964 1714.87 215.853 1711.61 213.595C1708.35 211.373 1706.35 208.449 1705.65 204.894C1704.94 201.34 1704.57 197.526 1704.57 193.454V26.6565C1704.57 22.8059 1704.94 19.1406 1705.65 15.6602C1706.35 12.2169 1708.35 9.3658 1711.61 7.10729C1714.87 4.8858 1720.35 3.73835 1728.12 3.73835C1733.19 3.73835 1737.08 4.03455 1739.71 4.66398C1742.34 5.2934 1744.3 6.14479 1745.52 7.25553C1746.74 8.36628 1748.08 9.66226 1749.48 11.0692L1818.2 103.927H1813.61L1882.66 11.0692C1884.29 9.21796 1885.92 7.81089 1887.55 6.77419C1889.18 5.77452 1891.25 4.99702 1893.81 4.47867C1896.36 3.96032 1899.95 3.70129 1904.65 3.70129C1911.99 3.70129 1917.28 4.81171 1920.54 7.07023C1923.8 9.32874 1925.83 12.217 1926.65 15.7714C1927.46 19.3258 1927.87 23.1392 1927.87 27.212V194.009C1927.87 197.897 1927.46 201.562 1926.65 205.005C1925.83 208.486 1923.8 211.336 1920.54 213.558C1917.28 215.779 1911.87 216.927 1904.36 216.927C1896.84 216.927 1891.73 215.816 1888.47 213.558C1885.22 211.336 1883.18 208.374 1882.37 204.709C1881.55 201.043 1881.14 197.267 1881.14 193.417V84.6746L1835.64 149.134C1834.83 149.949 1833.72 151.208 1832.27 152.948C1830.86 154.688 1828.86 156.206 1826.31 157.539C1823.76 158.872 1820.24 159.539 1815.76 159.539C1811.28 159.539 1808.02 158.872 1805.39 157.539C1802.73 156.206 1800.76 154.763 1799.43 153.096C1798.1 151.467 1796.95 150.023 1795.91 148.801L1750.71 84.6375V194.009C1750.71 197.897 1750.3 201.562 1749.48 205.005C1748.67 208.486 1746.67 211.336 1743.52 213.558C1740.38 215.779 1735.01 216.927 1727.49 216.927V216.964Z" fill="black"/>
<path d="M2540.85 55.61C2535.97 54.2771 2530.93 53.6105 2525.82 53.6105C2494.53 53.6105 2469.1 79.0464 2469.1 110.332C2469.1 141.618 2494.53 167.055 2525.82 167.055C2557.11 167.055 2582.54 141.618 2582.54 110.332C2582.54 105.223 2581.88 100.188 2580.54 95.3005C2579.62 91.9683 2581.58 88.4877 2584.95 87.5991C2588.28 86.6734 2591.76 88.636 2592.65 92.0053C2594.28 97.9663 2595.09 104.149 2595.09 110.369C2595.09 148.579 2563.99 179.643 2525.82 179.643C2487.65 179.643 2456.55 148.542 2456.55 110.369C2456.55 72.1968 2487.65 41.0961 2525.82 41.0961C2532.04 41.0961 2538.22 41.9108 2544.18 43.5399C2546.96 44.3174 2548.81 46.8351 2548.81 49.612C2548.81 50.1674 2548.74 50.7226 2548.59 51.2779C2547.66 54.6102 2544.22 56.6093 2540.89 55.6837L2540.85 55.61ZM2614.38 77.5284C2611.05 78.5281 2609.16 82.0084 2610.13 85.3406C2612.53 93.412 2613.72 101.817 2613.72 110.332C2613.72 158.835 2574.25 198.266 2525.78 198.266C2477.32 198.266 2437.85 158.798 2437.85 110.332C2437.85 61.8669 2477.32 22.3984 2525.78 22.3984C2534.3 22.3984 2542.7 23.6205 2550.77 25.9901C2554.11 26.9898 2557.59 25.0644 2558.59 21.7322C2558.77 21.1398 2558.85 20.5475 2558.85 19.9551C2558.85 17.2523 2557.07 14.7346 2554.33 13.92C2545.11 11.1802 2535.48 9.8103 2525.78 9.8103C2498.94 9.8103 2473.69 20.2511 2454.73 39.2449C2435.74 58.2386 2425.3 83.4523 2425.3 110.295C2425.3 137.138 2435.74 162.389 2454.73 181.346C2473.73 200.34 2498.94 210.781 2525.78 210.781C2552.63 210.781 2577.88 200.34 2596.83 181.346C2615.83 162.352 2626.27 137.138 2626.27 110.295C2626.27 100.595 2624.9 90.9684 2622.16 81.7122C2621.16 78.38 2617.68 76.4916 2614.35 77.4543L2614.38 77.5284ZM2525.82 85.1928C2526.75 85.1928 2527.67 85.2295 2528.6 85.3406C2532.04 85.7109 2535.15 83.2302 2535.52 79.7869C2535.89 76.3436 2533.41 73.2335 2529.97 72.8633C2528.6 72.7152 2527.19 72.6413 2525.82 72.6413C2505.05 72.6413 2488.13 89.5614 2488.13 110.332C2488.13 131.103 2505.05 148.024 2525.82 148.024C2546.59 148.024 2563.51 131.103 2563.51 110.332C2563.51 106.852 2560.7 104.038 2557.22 104.038C2553.74 104.038 2550.92 106.852 2550.92 110.332C2550.92 124.18 2539.67 135.472 2525.78 135.472C2511.9 135.472 2500.64 124.217 2500.64 110.332C2500.64 96.4481 2511.9 85.1928 2525.78 85.1928H2525.82Z" fill="#ED2024"/>
<path d="M2621.46 39.541L2598.76 37.7639L2596.98 15.0676C2596.87 13.5866 2596.2 12.1799 2595.17 11.1062C2592.72 8.66253 2588.73 8.66253 2586.28 11.1062L2563.77 33.6171C2562.73 34.6538 2562.1 35.9868 2561.96 37.4308L2558.81 68.8278L2522.3 105.334C2519.86 107.778 2519.86 111.777 2522.3 114.22C2523.49 115.405 2525.08 116.071 2526.75 116.071C2528.41 116.071 2530 115.405 2531.19 114.22L2567.7 77.7138L2599.09 74.5668C2600.54 74.4187 2601.87 73.7893 2602.91 72.7526L2625.42 50.2412C2626.49 49.1675 2627.12 47.7978 2627.23 46.2798C2627.53 42.8364 2624.94 39.8002 2621.46 39.541ZM2595.61 62.2743L2571.88 64.6439L2574.25 40.9109L2585.54 29.6186L2586.69 44.095C2586.95 47.168 2589.39 49.6119 2592.46 49.8711L2606.94 51.0186L2595.65 62.3113L2595.61 62.2743Z" fill="black"/>
<path d="M1975.52 216.964C1968.19 216.964 1962.89 215.891 1959.64 213.743C1956.38 211.596 1954.38 208.708 1953.68 205.042C1952.97 201.377 1952.6 197.6 1952.6 193.75V26.6565C1952.6 22.806 1952.97 19.0664 1953.68 15.512C1954.38 11.9576 1956.38 9.03277 1959.64 6.81128C1962.89 4.58979 1968.3 3.44189 1975.82 3.44189C1983.33 3.44189 1989 4.55277 1992.14 6.81128C1995.29 9.0698 1997.22 11.9576 1997.96 15.512C1998.66 19.0664 1999.03 22.8798 1999.03 26.9526V194.046C1999.03 197.933 1998.62 201.636 1997.81 205.19C1996.99 208.745 1995 211.596 1991.85 213.743C1988.7 215.891 1983.26 216.964 1975.52 216.964Z" fill="black"/>
<path d="M2094.04 220C2083.23 220 2073.82 218.667 2065.79 216.039C2057.75 213.41 2050.9 210.189 2045.31 206.412C2039.72 202.636 2035.24 198.933 2031.87 195.268C2028.5 191.602 2026.21 188.862 2024.99 187.011C2021.73 182.531 2019.65 178.606 2018.73 175.237C2017.8 171.868 2018.21 168.462 2019.95 165.018C2021.69 161.575 2024.8 157.799 2029.28 153.726C2033.54 150.06 2037.57 148.061 2041.35 147.764C2045.13 147.468 2048.83 148.431 2052.49 150.653C2056.16 152.911 2059.71 156.058 2063.19 160.131C2068.08 166.055 2072.93 170.165 2077.71 172.497C2082.48 174.83 2087.52 176.014 2092.81 176.014C2099.52 176.014 2105.22 175.2 2109.92 173.571C2114.59 171.942 2118.18 169.35 2120.62 165.796C2123.06 162.241 2124.29 157.687 2124.29 152.208C2124.29 147.728 2122.62 144.099 2119.25 141.359C2115.88 138.619 2111.4 136.25 2105.81 134.324C2100.22 132.399 2094 130.474 2087.19 128.512C2080.37 126.586 2073.49 124.18 2066.56 121.329C2062.08 119.7 2057.64 117.7 2053.27 115.368C2048.9 113.035 2044.83 110.295 2041.05 107.111C2037.28 103.964 2034.02 100.225 2031.28 95.9668C2028.54 91.7089 2026.36 86.8218 2024.73 81.3051C2023.1 75.7884 2022.28 69.4942 2022.28 62.3484C2022.28 50.3153 2025.28 39.6892 2031.28 30.433C2037.28 21.1768 2045.53 13.7719 2056.01 8.29223C2066.49 2.77553 2078.45 0.0357666 2091.89 0.0357666C2101.26 0.0357666 2109.36 0.849988 2116.18 2.47908C2122.99 4.10817 2128.77 6.03372 2133.43 8.29223C2138.1 10.5507 2141.84 12.7353 2144.58 14.8457C2147.32 16.9931 2149.2 18.6592 2150.24 19.881C2155.94 25.1756 2159.09 29.6923 2159.72 33.4688C2160.35 37.2454 2158.2 42.4659 2153.31 49.2044C2148.02 56.3502 2142.91 60.3122 2138.02 61.1267C2133.13 61.9413 2127.54 60.201 2121.21 55.9432C2118.77 53.7217 2116.33 51.6482 2113.88 49.834C2111.44 48.0198 2108.55 46.539 2105.18 45.3912C2101.81 44.2804 2097.29 43.7248 2091.59 43.7248C2088.52 43.7248 2085.59 44.1691 2082.74 45.0947C2079.89 46.0203 2077.45 47.2793 2075.41 48.9084C2073.38 50.5375 2071.75 52.5367 2070.53 54.8693C2069.3 57.2019 2068.67 59.7935 2068.67 62.6444C2068.67 67.5317 2070.27 71.4193 2073.41 74.2332C2076.56 77.0841 2080.74 79.3429 2085.93 80.972C2091.11 82.6011 2096.92 84.1933 2103.33 85.7113C2109.73 87.2293 2116.33 89.0063 2123.03 91.0426C2129.14 93.079 2135.02 95.5597 2140.76 98.5217C2146.46 101.484 2151.54 105.186 2156.02 109.666C2160.5 114.146 2164.12 119.737 2166.86 126.475C2169.6 133.214 2170.97 141.433 2170.97 151.208C2170.97 163.426 2168.64 173.904 2163.94 182.679C2159.24 191.454 2153.05 198.563 2145.32 204.08C2137.58 209.596 2129.21 213.595 2120.25 216.15C2111.29 218.704 2102.52 219.963 2094 219.963L2094.04 220Z" fill="black"/>
<path d="M2260.83 220C2250.02 220 2240.62 218.667 2232.58 216.039C2224.55 213.41 2217.7 210.189 2212.11 206.412C2206.52 202.636 2202.04 198.933 2198.67 195.268C2195.3 191.602 2193 188.862 2191.78 187.011C2188.52 182.531 2186.45 178.606 2185.53 175.237C2184.6 171.868 2185.01 168.462 2186.75 165.018C2188.49 161.575 2191.6 157.799 2196.08 153.726C2200.34 150.06 2204.37 148.061 2208.15 147.764C2211.92 147.468 2215.63 148.431 2219.29 150.653C2222.96 152.911 2226.51 156.058 2229.99 160.131C2234.88 166.055 2239.73 170.165 2244.51 172.497C2249.28 174.83 2254.32 176.014 2259.61 176.014C2266.31 176.014 2272.02 175.2 2276.72 173.571C2281.38 171.942 2284.97 169.35 2287.42 165.796C2289.86 162.241 2291.08 157.687 2291.08 152.208C2291.08 147.728 2289.42 144.099 2286.05 141.359C2282.68 138.619 2278.2 136.25 2272.61 134.324C2267.02 132.399 2260.8 130.474 2253.98 128.512C2247.17 126.586 2240.28 124.18 2233.36 121.329C2228.88 119.7 2224.44 117.7 2220.07 115.368C2215.7 113.035 2211.63 110.295 2207.85 107.111C2204.07 103.964 2200.82 100.225 2198.08 95.9668C2195.34 91.7089 2193.15 86.8218 2191.52 81.3051C2189.89 75.7884 2189.08 69.4942 2189.08 62.3484C2189.08 50.3153 2192.08 39.6892 2198.08 30.433C2204.07 21.1768 2212.33 13.7719 2222.81 8.29223C2233.29 2.77553 2245.25 0.0357666 2258.69 0.0357666C2268.05 0.0357666 2276.16 0.849988 2282.97 2.47908C2289.79 4.10817 2295.56 6.03372 2300.23 8.29223C2304.89 10.5507 2308.63 12.7353 2311.37 14.8457C2314.11 16.9931 2316 18.6592 2317.04 19.881C2322.74 25.1756 2325.89 29.6923 2326.52 33.4688C2327.15 37.2454 2325 42.4659 2320.11 49.2044C2314.82 56.3502 2309.71 60.3122 2304.82 61.1267C2299.93 61.9413 2294.34 60.201 2288.01 55.9432C2285.57 53.7217 2283.12 51.6482 2280.68 49.834C2278.24 48.0198 2275.35 46.539 2271.98 45.3912C2268.61 44.2804 2264.09 43.7248 2258.39 43.7248C2255.32 43.7248 2252.39 44.1691 2249.54 45.0947C2246.69 46.0203 2244.25 47.2793 2242.21 48.9084C2240.17 50.5375 2238.54 52.5367 2237.32 54.8693C2236.1 57.2019 2235.47 59.7935 2235.47 62.6444C2235.47 67.5317 2237.06 71.4193 2240.21 74.2332C2243.36 77.0841 2247.54 79.3429 2252.72 80.972C2257.91 82.6011 2263.72 84.1933 2270.13 85.7113C2276.53 87.2293 2283.12 89.0063 2289.82 91.0426C2295.93 93.079 2301.82 95.5597 2307.56 98.5217C2313.26 101.484 2318.33 105.186 2322.81 109.666C2327.29 114.146 2330.92 119.737 2333.66 126.475C2336.4 133.214 2337.77 141.433 2337.77 151.208C2337.77 163.426 2335.44 173.904 2330.74 182.679C2326.03 191.454 2319.85 198.563 2312.11 204.08C2304.37 209.596 2296.01 213.595 2287.05 216.15C2278.09 218.704 2269.31 219.963 2260.8 219.963L2260.83 220Z" fill="black"/>
<path d="M2379.94 216.964C2372.61 216.964 2367.32 215.891 2364.06 213.743C2360.8 211.596 2358.8 208.708 2358.1 205.042C2357.39 201.377 2357.02 197.6 2357.02 193.75V26.6565C2357.02 22.806 2357.39 19.0664 2358.1 15.512C2358.8 11.9576 2360.8 9.03277 2364.06 6.81128C2367.32 4.58979 2372.72 3.44189 2380.24 3.44189C2387.75 3.44189 2393.42 4.55277 2396.57 6.81128C2399.71 9.0698 2401.64 11.9576 2402.38 15.512C2403.08 19.0664 2403.45 22.8798 2403.45 26.9526V194.046C2403.45 197.933 2403.05 201.636 2402.23 205.19C2401.42 208.745 2399.42 211.596 2396.27 213.743C2393.12 215.891 2387.68 216.964 2379.94 216.964Z" fill="black"/>
<path d="M2671.99 216.964C2664.66 216.964 2659.41 215.853 2656.26 213.595C2653.11 211.373 2651.11 208.449 2650.3 204.894C2649.48 201.34 2649.08 197.526 2649.08 193.454V25.768C2649.08 22.1025 2649.48 18.5852 2650.3 15.216C2651.11 11.8467 2653.19 9.10694 2656.55 6.9595C2659.92 4.81206 2665.37 3.73835 2672.88 3.73835C2680.4 3.73835 2685.29 4.58975 2688.17 6.32991C2691.03 8.07008 2693.58 10.4399 2695.8 13.513L2784.99 135.991V25.7309C2784.99 22.0654 2785.44 18.5482 2786.36 15.1789C2787.29 11.8096 2789.36 9.06988 2792.62 6.92244C2795.88 4.775 2801.17 3.70129 2808.5 3.70129C2815.84 3.70129 2821.39 4.81171 2824.54 7.07023C2827.68 9.32874 2829.61 12.217 2830.35 15.7714C2831.05 19.3258 2831.42 23.1392 2831.42 27.212V193.713C2831.42 197.563 2831.02 201.303 2830.2 204.857C2829.39 208.411 2827.31 211.336 2823.94 213.558C2820.58 215.779 2815.13 216.927 2807.62 216.927C2801.91 216.927 2797.55 216.409 2794.47 215.409C2791.44 214.372 2788.77 212.447 2786.55 209.596L2695.51 86.1923V193.713C2695.51 197.563 2695.1 201.303 2694.28 204.857C2693.47 208.411 2691.43 211.336 2688.17 213.558C2684.92 215.779 2679.51 216.927 2671.99 216.927V216.964Z" fill="black"/>
</svg>
